<svg width="4118" height="751" viewBox="0 0 4118 751" fill="none" xmlns="http://www.w3.org/2000/svg">
<g clip-path="url(#clip0_26_2)">
<path d="M536.542 322.716C536.542 488.971 486.223 623.739 410.658 623.739C335.092 623.739 262.884 488.961 262.884 322.716C262.884 156.472 324.142 21.6934 399.718 21.6934C475.294 21.6934 536.552 156.472 536.552 322.716H536.542Z" fill="url(#paint0_linear_26_2)"/>
<path d="M149.334 187.525C203.485 163.156 309.101 240.044 385.225 359.265C461.348 478.486 479.157 594.887 425.006 619.246C370.855 643.615 265.239 566.727 189.115 447.506C112.992 328.284 95.1827 211.883 149.334 187.525Z" fill="url(#paint1_linear_26_2)"/>
<path d="M284.784 431.08C403.271 492.08 525.974 554.671 452.113 608.905C423.705 639.896 306.663 624.318 188.175 563.318C69.698 502.318 -4.73132 423.271 21.9413 386.753C48.614 350.236 166.296 370.08 284.784 431.08Z" fill="url(#paint2_linear_26_2)"/>
</g>
<path d="M963.859 634.992C838.699 634.992 771.112 572.411 764.437 484.799L856.221 480.627C863.731 529.857 895.438 560.73 963.859 560.73C1018.93 560.73 1053.97 544.042 1053.97 504.825C1053.97 472.283 1037.29 458.098 948.005 443.079C816.17 419.716 775.284 381.333 775.284 308.74C775.284 227.803 837.864 171.064 953.012 171.064C1066.49 171.064 1126.57 236.147 1139.08 317.084L1048.13 322.091C1039.79 276.199 1007.25 245.326 952.177 245.326C894.604 245.326 867.068 270.358 867.068 305.403C867.068 344.62 893.769 360.473 966.362 372.155C1104.04 394.684 1145.76 431.397 1145.76 503.99C1145.76 587.431 1069.83 634.992 963.859 634.992Z" fill="#040404"/>
<path d="M1340.32 634.992C1250.21 634.992 1194.3 572.411 1194.3 466.442V181.077H1282.75V443.913C1282.75 524.85 1310.29 560.73 1367.03 560.73C1431.27 560.73 1469.66 517.341 1469.66 441.41V181.077H1558.1V624.979H1475.5L1474.66 552.386C1451.3 606.622 1404.57 634.992 1340.32 634.992Z" fill="#040404"/>
<path d="M1641.49 750.139V181.077H1724.93L1726.6 248.663C1752.47 197.765 1801.7 171.064 1860.94 171.064C1991.11 171.064 2051.18 277.867 2051.18 403.028C2051.18 528.188 1990.27 634.992 1860.94 634.992C1804.2 634.992 1754.14 608.291 1729.94 564.902V750.139H1641.49ZM1845.09 558.227C1916.01 558.227 1959.4 500.653 1959.4 403.028C1959.4 305.403 1916.01 247.829 1845.09 247.829C1774.16 247.829 1729.94 300.396 1729.94 403.028C1729.94 505.659 1773.33 558.227 1845.09 558.227Z" fill="#040404"/>
<path d="M2234.23 634.992C2142.45 634.992 2082.37 590.768 2082.37 514.003C2082.37 438.073 2127.43 397.187 2224.22 377.996L2376.91 348.792C2376.91 280.371 2345.21 246.16 2281.79 246.16C2225.05 246.16 2193.34 272.027 2181.66 320.422L2089.88 314.581C2106.57 226.134 2175.82 171.064 2281.79 171.064C2401.94 171.064 2465.36 238.651 2465.36 353.798V526.519C2465.36 548.214 2472.87 554.889 2489.56 554.889H2505.41V624.979C2499.57 626.648 2485.38 627.482 2472.87 627.482C2421.97 627.482 2391.93 608.291 2384.42 556.558C2361.89 603.284 2303.49 634.992 2234.23 634.992ZM2249.25 564.902C2328.52 564.902 2376.91 514.838 2376.91 443.913V415.544L2247.58 440.576C2194.18 450.589 2174.15 471.449 2174.15 505.659C2174.15 544.042 2201.69 564.902 2249.25 564.902Z" fill="#040404"/>
<path d="M2550.53 624.979V181.077H2631.47L2633.97 265.351C2650.66 206.943 2685.71 181.077 2739.94 181.077H2782.5V260.345H2739.94C2672.36 260.345 2638.98 292.887 2638.98 362.976V624.979H2550.53Z" fill="#040404"/>
<path d="M2943.63 634.992C2851.85 634.992 2791.77 590.768 2791.77 514.003C2791.77 438.073 2836.83 397.187 2933.62 377.996L3086.32 348.792C3086.32 280.371 3054.61 246.16 2991.2 246.16C2934.46 246.16 2902.75 272.027 2891.07 320.422L2799.28 314.581C2815.97 226.134 2885.23 171.064 2991.2 171.064C3111.35 171.064 3174.76 238.651 3174.76 353.798V526.519C3174.76 548.214 3182.27 554.889 3198.96 554.889H3214.82V624.979C3208.97 626.648 3194.79 627.482 3182.27 627.482C3131.37 627.482 3101.34 608.291 3093.83 556.558C3071.3 603.284 3012.89 634.992 2943.63 634.992ZM2958.65 564.902C3037.92 564.902 3086.32 514.838 3086.32 443.913V415.544L2956.98 440.576C2903.58 450.589 2883.56 471.449 2883.56 505.659C2883.56 544.042 2911.09 564.902 2958.65 564.902Z" fill="#040404"/>
<path d="M3259.94 624.979V181.077H3340.87L3342.54 258.676C3365.91 197.765 3416.81 171.064 3477.72 171.064C3577.01 171.064 3627.91 242.823 3627.91 339.613V624.979H3539.46V366.314C3539.46 287.88 3515.27 245.326 3453.52 245.326C3390.94 245.326 3348.38 287.88 3348.38 366.314V624.979H3259.94Z" fill="#040404"/>
<path d="M3711.2 624.979V32.5532H3799.65V400.525L3999.07 181.077H4110.88L3937.32 367.983L4117.55 624.979H4015.76L3878.08 423.053L3799.65 506.494V624.979H3711.2Z" fill="#040404"/>
<defs>
<linearGradient id="paint0_linear_26_2" x1="347.984" y1="30.9906" x2="456.172" y2="633.181" gradientUnits="userSpaceOnUse">
<stop stop-color="#C86CC2"/>
<stop offset="1" stop-color="#681C64"/>
</linearGradient>
<linearGradient id="paint1_linear_26_2" x1="146.258" y1="190.251" x2="399.607" y2="658.494" gradientUnits="userSpaceOnUse">
<stop stop-color="#C86CC2"/>
<stop offset="1" stop-color="#681C64"/>
</linearGradient>
<linearGradient id="paint2_linear_26_2" x1="30.4741" y1="372.219" x2="491.43" y2="647.003" gradientUnits="userSpaceOnUse">
<stop stop-color="#C86CC2"/>
<stop offset="1" stop-color="#681C64"/>
</linearGradient>
<clipPath id="clip0_26_2">
<rect width="520.013" height="602.728" fill="white" transform="translate(16.5283 21.6934)"/>
</clipPath>
</defs>
</svg>
